<svg xmlns="http://www.w3.org/2000/svg" width="1200" height="420" viewBox="0 0 1200 420" role="img" aria-labelledby="title desc">
  <title id="title">praxis</title>
  <desc id="desc">REFINEMENT</desc>
  <defs>
    <radialGradient id="bg" cx="0.32" cy="0.42" r="0.95" gradientUnits="userSpaceOnUse">
      <stop offset="0" stop-color="#15101F"/>
      <stop offset="0.55" stop-color="#0C0F16"/>
      <stop offset="1" stop-color="#0B0E11"/>
    </radialGradient>
    <linearGradient id="acc" x1="0" y1="0" x2="1" y2="0">
      <stop offset="0" stop-color="#7C5CFF"/>
      <stop offset="1" stop-color="#9B7BFF"/>
    </linearGradient>
    <linearGradient id="panel" x1="0" y1="0" x2="0" y2="1">
      <stop offset="0" stop-color="#161B26"/>
      <stop offset="1" stop-color="#10131B"/>
    </linearGradient>
  </defs>
  <rect width="1200" height="420" fill="url(#bg)"/>
  <rect x="598" y="56" width="1" height="312" fill="#222838"/>
  <text x="64" y="74" font-family="-apple-system,BlinkMacSystemFont,Segoe UI,sans-serif" font-size="12" letter-spacing="3" fill="#7C5CFF">REFINEMENT</text>
  <text x="62" y="128" font-family="-apple-system,BlinkMacSystemFont,Segoe UI,sans-serif" font-size="50" font-weight="700" fill="#F4F6FB">praxis</text>
  <rect x="64" y="146" width="52" height="4" rx="2" fill="url(#acc)"/>
<text x="64" y="176" font-family="-apple-system,BlinkMacSystemFont,Segoe UI,sans-serif" font-size="17" fill="#C7CEDB">Behavioral refinement</text>
<text x="64" y="204" font-family="-apple-system,BlinkMacSystemFont,Segoe UI,sans-serif" font-size="17" fill="#C7CEDB">loop — measures outcomes,</text>
<text x="64" y="232" font-family="-apple-system,BlinkMacSystemFont,Segoe UI,sans-serif" font-size="17" fill="#C7CEDB">promotes improvements</text>
<path d="M1000 120 A 90 90 0 1 1 920 200" fill="none" stroke="url(#acc)" stroke-width="3"/><path d="M920 200 l-6 -18 h16 z" fill="#7C5CFF"/><rect x="720" y="120" width="150" height="40" rx="10" fill="url(#panel)" stroke="#2A3350"/><text x="795" y="146" text-anchor="middle" font-family="-apple-system,BlinkMacSystemFont,Segoe UI,sans-serif" font-size="13" fill="#C7CEDB">measure</text>
<rect x="720" y="210" width="150" height="40" rx="10" fill="url(#panel)" stroke="#2A3350"/><text x="795" y="236" text-anchor="middle" font-family="-apple-system,BlinkMacSystemFont,Segoe UI,sans-serif" font-size="13" fill="#C7CEDB">refine</text>
<rect x="720" y="300" width="150" height="40" rx="10" fill="url(#panel)" stroke="#2A3350"/><text x="795" y="326" text-anchor="middle" font-family="-apple-system,BlinkMacSystemFont,Segoe UI,sans-serif" font-size="13" fill="#C7CEDB">promote</text>

</svg>